0
SECTION
2
HEADER
9
$INSUNITS
70
4
9
$ACADVER
1
AC1014
9
$HANDSEED
5
FFFF
0
ENDSEC
0
SECTION
2
TABLES
0
TABLE
2
VPORT
5
8
100
AcDbSymbolTable
0
ENDTAB
0
TABLE
2
LTYPE
5
5
100
AcDbSymbolTable
0
LTYPE
5
14
100
AcDbSymbolTableRecord
100
AcDbLinetypeTableRecord
2
BYBLOCK
70
0
0
LTYPE
5
15
100
AcDbSymbolTableRecord
100
AcDbLinetypeTableRecord
2
BYLAYER
70
0
0
ENDTAB
0
TABLE
2
LAYER
5
2
100
AcDbSymbolTable
70
2
0
LAYER
5
50
100
AcDbSymbolTableRecord
100
AcDbLayerTableRecord
2
0
70
0
6
CONTINUOUS
0
ENDTAB
0
TABLE
2
STYLE
5
3
100
AcDbSymbolTable
70
1
0
STYLE
5
11
100
AcDbSymbolTableRecord
100
AcDbTextStyleTableRecord
2
STANDARD
70
0
0
ENDTAB
0
TABLE
2
VIEW
5
6
100
AcDbSymbolTable
70
0
0
ENDTAB
0
TABLE
2
UCS
5
7
100
AcDbSymbolTable
70
0
0
ENDTAB
0
TABLE
2
APPID
5
9
100
AcDbSymbolTable
70
2
0
APPID
5
12
100
AcDbSymbolTableRecord
100
AcDbRegAppTableRecord
2
ACAD
70
0
0
ENDTAB
0
TABLE
2
DIMSTYLE
5
A
100
AcDbSymbolTable
70
1
0
ENDTAB
0
TABLE
2
BLOCK_RECORD
5
1
100
AcDbSymbolTable
70
1
0
BLOCK_RECORD
5
1F
100
AcDbSymbolTableRecord
100
AcDbBlockTableRecord
2
*MODEL_SPACE
0
BLOCK_RECORD
5
1B
100
AcDbSymbolTableRecord
100
AcDbBlockTableRecord
2
*PAPER_SPACE
0
ENDTAB
0
ENDSEC
0
SECTION
2
BLOCKS
0
BLOCK
5
20
100
AcDbEntity
100
AcDbBlockBegin
2
*MODEL_SPACE
0
ENDBLK
5
21
100
AcDbEntity
100
AcDbBlockEnd
0
BLOCK
5
1C
100
AcDbEntity
100
AcDbBlockBegin
2
*PAPER_SPACE
0
ENDBLK
5
1D
100
AcDbEntity
100
AcDbBlockEnd
0
ENDSEC
0
SECTION
2
ENTITIES
0
LWPOLYLINE
5
100
100
AcDbEntity
8
0
100
AcDbPolyline
90
4
70
1
43
0.0
10
-292.06999999999999
20
95.870000000000005
10
-278.07000000000005
20
95.870000000000005
10
-278.07000000000005
20
109.87000000000002
10
-292.06999999999999
20
109.87000000000002
0
LWPOLYLINE
5
101
100
AcDbEntity
8
0
100
AcDbPolyline
90
4
70
1
43
0.0
10
-311.12
20
153.02000000000004
10
-297.12
20
153.02000000000004
10
-297.12
20
167.02000000000001
10
-311.12
20
167.02000000000001
0
LWPOLYLINE
5
102
100
AcDbEntity
8
0
100
AcDbPolyline
90
4
70
1
43
0.0
10
-249.06200000000001
20
109.87000000000002
10
-249.06200000000001
20
95.870000000000005
10
-235.06200000000004
20
95.870000000000005
10
-235.06200000000004
20
109.87000000000002
0
LWPOLYLINE
5
103
100
AcDbEntity
8
0
100
AcDbPolyline
90
4
70
1
43
0.0
10
-249.06200000000001
20
114.92000000000002
10
-235.06200000000004
20
114.92000000000002
10
-235.06200000000004
20
128.91999999999999
10
-249.06200000000001
20
128.91999999999999
0
LWPOLYLINE
5
104
100
AcDbEntity
8
0
100
AcDbPolyline
90
4
70
1
43
0.0
10
-210.96199999999999
20
129.20500000000001
10
-196.96200000000002
20
129.20500000000001
10
-196.96200000000002
20
143.20500000000004
10
-210.96199999999999
20
143.20500000000004
0
LWPOLYLINE
5
105
100
AcDbEntity
8
0
100
AcDbPolyline
90
4
70
1
43
0.0
10
-191.91200000000003
20
121.80800000000002
10
-191.91200000000003
20
107.80800000000002
10
-177.91200000000003
20
107.80800000000002
10
-177.91200000000003
20
121.80800000000002
0
LWPOLYLINE
5
106
100
AcDbEntity
8
0
100
AcDbPolyline
90
4
70
1
43
0.0
10
-168.31200000000001
20
183.87
10
-182.31200000000001
20
183.87
10
-182.31200000000001
20
169.87
10
-168.31200000000001
20
169.87
0
LWPOLYLINE
5
107
100
AcDbEntity
8
0
100
AcDbPolyline
90
4
70
1
43
0.0
10
-172.86200000000002
20
129.20500000000001
10
-158.86200000000002
20
129.20500000000001
10
-158.86200000000002
20
143.20500000000004
10
-172.86200000000002
20
143.20500000000004
0
LWPOLYLINE
5
108
100
AcDbEntity
8
0
100
AcDbPolyline
90
4
70
1
43
0.0
10
-153.81200000000004
20
126.50700000000001
10
-153.81200000000004
20
112.50700000000002
10
-139.81200000000001
20
112.50700000000002
10
-139.81200000000001
20
126.50700000000001
0
LWPOLYLINE
5
109
100
AcDbEntity
8
0
100
AcDbPolyline
90
4
70
1
43
0.0
10
-172.86200000000002
20
105.105
10
-172.86200000000002
20
91.105000000000018
10
-158.86200000000002
20
91.105000000000018
10
-158.86200000000002
20
105.105
0
LWPOLYLINE
5
110
100
AcDbEntity
8
0
100
AcDbPolyline
90
4
70
1
43
0.0
10
-153.81200000000004
20
164.636
10
-153.81200000000004
20
150.63600000000002
10
-139.81200000000001
20
150.63600000000002
10
-139.81200000000001
20
164.636
0
LWPOLYLINE
5
111
100
AcDbEntity
8
0
100
AcDbPolyline
90
4
70
1
43
0.0
10
-187.36199999999999
20
169.87
10
-187.36199999999999
20
183.87
10
-201.36199999999999
20
183.87
10
-201.36199999999999
20
169.87
0
LWPOLYLINE
5
112
100
AcDbEntity
8
0
100
AcDbPolyline
90
4
70
1
43
0.0
10
-191.91200000000003
20
102.72000000000003
10
-191.91200000000003
20
88.719999999999999
10
-177.91200000000003
20
88.719999999999999
10
-177.91200000000003
20
102.72000000000003
0
LWPOLYLINE
5
113
100
AcDbEntity
8
0
100
AcDbPolyline
90
4
70
1
43
0.0
10
-210.96199999999999
20
148.25500000000002
10
-196.96200000000002
20
148.25500000000002
10
-196.96200000000002
20
162.255
10
-210.96199999999999
20
162.255
0
LWPOLYLINE
5
114
100
AcDbEntity
8
0
100
AcDbPolyline
90
4
70
1
43
0.0
10
-230.012
20
153.02000000000004
10
-216.01200000000003
20
153.02000000000004
10
-216.01200000000003
20
167.02000000000001
10
-230.012
20
167.02000000000001
0
LWPOLYLINE
5
115
100
AcDbEntity
8
0
100
AcDbPolyline
90
4
70
1
43
0.0
10
-249.06200000000001
20
153.02000000000004
10
-235.06200000000004
20
153.02000000000004
10
-235.06200000000004
20
167.02000000000001
10
-249.06200000000001
20
167.02000000000001
0
LWPOLYLINE
5
116
100
AcDbEntity
8
0
100
AcDbPolyline
90
4
70
1
43
0.0
10
-292.06999999999999
20
133.97000000000003
10
-278.07000000000005
20
133.97000000000003
10
-278.07000000000005
20
147.97
10
-292.06999999999999
20
147.97
0
LWPOLYLINE
5
117
100
AcDbEntity
8
0
100
AcDbPolyline
90
4
70
1
43
0.0
10
-273.01999999999998
20
109.87
10
-273.01999999999998
20
95.870000000000019
10
-259.01999999999998
20
95.870000000000019
10
-259.01999999999998
20
109.87
0
LWPOLYLINE
5
118
100
AcDbEntity
8
0
100
AcDbPolyline
90
4
70
1
43
0.0
10
-311.12
20
114.92000000000002
10
-297.12
20
114.92000000000002
10
-297.12
20
128.91999999999999
10
-311.12
20
128.91999999999999
0
LWPOLYLINE
5
119
100
AcDbEntity
8
0
100
AcDbPolyline
90
4
70
1
43
0.0
10
-292.06999999999999
20
128.91999999999999
10
-292.06999999999999
20
114.92000000000002
10
-278.07000000000005
20
114.92000000000002
10
-278.07000000000005
20
128.91999999999999
0
LWPOLYLINE
5
120
100
AcDbEntity
8
0
100
AcDbPolyline
90
4
70
1
43
0.0
10
-292.06999999999999
20
167.02000000000001
10
-292.06999999999999
20
153.02000000000004
10
-278.07000000000005
20
153.02000000000004
10
-278.07000000000005
20
167.02000000000001
0
LWPOLYLINE
5
121
100
AcDbEntity
8
0
100
AcDbPolyline
90
4
70
1
43
0.0
10
-230.012
20
109.87000000000002
10
-230.012
20
95.870000000000005
10
-216.01200000000003
20
95.870000000000005
10
-216.01200000000003
20
109.87000000000002
0
LWPOLYLINE
5
122
100
AcDbEntity
8
0
100
AcDbPolyline
90
4
70
1
43
0.0
10
-249.06200000000001
20
133.97000000000003
10
-235.06200000000004
20
133.97000000000003
10
-235.06200000000004
20
147.97
10
-249.06200000000001
20
147.97
0
LWPOLYLINE
5
123
100
AcDbEntity
8
0
100
AcDbPolyline
90
4
70
1
43
0.0
10
-210.96199999999999
20
110.22100000000002
10
-196.96200000000002
20
110.22100000000002
10
-196.96200000000002
20
124.221
10
-210.96199999999999
20
124.221
0
LWPOLYLINE
5
124
100
AcDbEntity
8
0
100
AcDbPolyline
90
4
70
1
43
0.0
10
-191.91200000000003
20
126.81999999999999
10
-177.91200000000003
20
126.81999999999999
10
-177.91200000000003
20
140.81999999999999
10
-191.91200000000003
20
140.81999999999999
0
LWPOLYLINE
5
125
100
AcDbEntity
8
0
100
AcDbPolyline
90
4
70
1
43
0.0
10
-149.262
20
186.25399999999999
10
-163.262
20
186.25399999999999
10
-163.262
20
172.25400000000002
10
-149.262
20
172.25400000000002
0
LWPOLYLINE
5
126
100
AcDbEntity
8
0
100
AcDbPolyline
90
4
70
1
43
0.0
10
-153.81200000000004
20
145.55699999999999
10
-153.81200000000004
20
131.55699999999999
10
-139.81200000000001
20
131.55699999999999
10
-139.81200000000001
20
145.55699999999999
0
LWPOLYLINE
5
127
100
AcDbEntity
8
0
100
AcDbPolyline
90
4
70
1
43
0.0
10
-153.81200000000004
20
107.48599999999999
10
-153.81200000000004
20
93.486000000000018
10
-139.81200000000001
20
93.486000000000018
10
-139.81200000000001
20
107.48599999999999
0
LWPOLYLINE
5
128
100
AcDbEntity
8
0
100
AcDbPolyline
90
4
70
1
43
0.0
10
-172.86200000000002
20
124.17020000000001
10
-172.86200000000002
20
110.17019999999999
10
-158.86200000000002
20
110.17019999999999
10
-158.86200000000002
20
124.17020000000001
0
LWPOLYLINE
5
129
100
AcDbEntity
8
0
100
AcDbPolyline
90
4
70
1
43
0.0
10
-172.86200000000002
20
162.255
10
-172.86200000000002
20
148.25500000000002
10
-158.86200000000002
20
148.25500000000002
10
-158.86200000000002
20
162.255
0
LWPOLYLINE
5
130
100
AcDbEntity
8
0
100
AcDbPolyline
90
4
70
1
43
0.0
10
-191.91200000000003
20
159.87
10
-191.91200000000003
20
145.87
10
-177.91200000000003
20
145.87
10
-177.91200000000003
20
159.87
0
LWPOLYLINE
5
131
100
AcDbEntity
8
0
100
AcDbPolyline
90
4
70
1
43
0.0
10
-210.96199999999999
20
105.105
10
-210.96199999999999
20
91.105000000000018
10
-196.96200000000002
20
91.105000000000018
10
-196.96200000000002
20
105.105
0
LWPOLYLINE
5
132
100
AcDbEntity
8
0
100
AcDbPolyline
90
4
70
1
43
0.0
10
-230.012
20
133.97000000000003
10
-216.01200000000003
20
133.97000000000003
10
-216.01200000000003
20
147.97
10
-230.012
20
147.97
0
LWPOLYLINE
5
133
100
AcDbEntity
8
0
100
AcDbPolyline
90
4
70
1
43
0.0
10
-230.012
20
114.91999999999999
10
-216.01200000000003
20
114.91999999999999
10
-216.01200000000003
20
128.92000000000002
10
-230.012
20
128.92000000000002
0
LWPOLYLINE
5
134
100
AcDbEntity
8
0
100
AcDbPolyline
90
4
70
1
43
0.0
10
-273.01999999999998
20
167.02000000000001
10
-273.01999999999998
20
153.02000000000004
10
-259.01999999999998
20
153.02000000000004
10
-259.01999999999998
20
167.02000000000001
0
LWPOLYLINE
5
135
100
AcDbEntity
8
0
100
AcDbPolyline
90
4
70
1
43
0.0
10
-273.01999999999998
20
128.91999999999999
10
-273.01999999999998
20
114.92000000000002
10
-259.01999999999998
20
114.92000000000002
10
-259.01999999999998
20
128.91999999999999
0
LWPOLYLINE
5
136
100
AcDbEntity
8
0
100
AcDbPolyline
90
4
70
1
43
0.0
10
-311.12
20
95.870000000000005
10
-297.12
20
95.870000000000005
10
-297.12
20
109.87000000000002
10
-311.12
20
109.87000000000002
0
CIRCLE
5
137
100
AcDbEntity
8
0
100
AcDbCircle
10
-232.54599999999999
20
131.42099999999999
30
0
40
1.6500000000000001
210
0
220
-0
230
1
0
CIRCLE
5
138
100
AcDbEntity
8
0
100
AcDbCircle
10
-156.41200000000001
20
108.48600000000002
30
0
40
1.6500000000000001
210
0
220
-0
230
1
0
CIRCLE
5
139
100
AcDbEntity
8
0
100
AcDbCircle
10
-142.946
20
171.89099999999999
30
0
40
1.6500000000000001
210
0
220
-0
230
1
0
CIRCLE
5
140
100
AcDbEntity
8
0
100
AcDbCircle
10
-294.61200000000008
20
112.58600000000001
30
0
40
1.6500000000000001
210
0
220
-0
230
1
0
LWPOLYLINE
5
141
100
AcDbEntity
8
0
100
AcDbPolyline
90
20
70
1
43
0.0
10
-133.17938682229993
20
197.38336419246252
10
-144.16200921425644
20
191.04273243888451
10
-143.75634731351039
20
190.33943510989707
10
-144.27602218525402
20
190.03986407122252
10
-142.79380932783741
20
187.47091594115093
10
-143.4364879281907
20
187.099597923901
10
-141.86382654465933
20
184.376453565232
10
-141.22114794430613
20
184.74777158248187
10
-130.87082419113759
20
166.82045458659076
10
-131.51350279149088
20
166.44913656934091
10
-129.94084140795951
20
163.72599221067188
10
-129.2981628076063
20
164.09731022792181
10
-127.81594995018975
20
161.52836209785022
10
-127.29627507844614
20
161.82793313652482
10
-126.89061317770015
20
161.12463580753743
10
-115.90799078574366
20
167.46526756111552
10
-116.31365268648963
20
168.16856489010291
10
-115.79397781474609
20
168.46813592877751
10
-132.25405004981036
20
196.97963790214973
10
-132.77372492155394
20
196.68006686347519
0
LINE
5
142
100
AcDbEntity
8
0
100
AcDbLine
10
-155.47200000000001
20
90.986000000000018
30
0
11
-137.95070789492652
21
90.986000000000018
31
0
0
ARC
5
143
100
AcDbEntity
8
0
100
AcDbCircle
10
-137.95070789492652
20
91.986000000000004
30
0
40
0.99999999999999645
210
-0
220
0
230
1
100
AcDbArc
50
-90
51
0
0
LINE
5
144
100
AcDbEntity
8
0
100
AcDbLine
10
-136.95070789492655
20
91.986000000000004
30
0
11
-136.95070789492647
21
153.16036708812015
31
0
0
LINE
5
145
100
AcDbEntity
8
0
100
AcDbLine
10
-136.95070789492647
20
153.16036708812015
30
0
11
-111.59294785551332
21
167.80065186264846
31
0
0
ARC
5
146
100
AcDbEntity
8
0
100
AcDbCircle
10
-112.09294722001731
20
168.66667763333638
30
0
40
1.0000000000000022
210
-0
220
0
230
1
100
AcDbArc
50
-60.000042044068337
51
29.999957955933048
0
LINE
5
147
100
AcDbEntity
8
0
100
AcDbLine
10
-111.2269214493294
20
169.1666769978404
30
0
11
-129.36799999999999
21
200.58800000000002
31
0
0
ARC
5
148
100
AcDbEntity
8
0
100
AcDbCircle
10
-130.23400000000004
20
200.08800000000002
30
0
40
0.99997799975801949
210
0
220
-0
230
1
100
AcDbArc
50
30.000727780826171
51
120.00072778082617
0
LINE
5
149
100
AcDbEntity
8
0
100
AcDbLine
10
-130.73400000000004
20
200.95400000000006
30
0
11
-151.23597512830196
21
189.11093122231361
31
0
0
ARC
5
150
100
AcDbEntity
8
0
100
AcDbCircle
10
-151.73599999999999
20
189.97699999999992
30
0
40
1.0000499987498994
210
0
220
0
230
1
100
AcDbArc
50
269.42706130231534
51
299.99999155338548
0
LINE
5
151
100
AcDbEntity
8
0
100
AcDbLine
10
-151.74600000000001
20
188.97700000000009
30
0
11
-164.84399999999999
21
188.977
31
0
0
ARC
5
152
100
AcDbEntity
8
0
100
AcDbCircle
10
-164.84399999999999
20
187.97700000000003
30
0
40
0.99999999999997868
210
0
220
-0
230
1
100
AcDbArc
50
90
51
180
0
LINE
5
153
100
AcDbEntity
8
0
100
AcDbLine
10
-165.84399999999999
20
187.97700000000003
30
0
11
-165.84399999999999
21
187.59700000000004
31
0
0
ARC
5
154
100
AcDbEntity
8
0
100
AcDbCircle
10
-166.84399999999999
20
187.59700000000004
30
0
40
1.0000000000000142
210
-0
220
0
230
1
100
AcDbArc
50
-90
51
0
0
LINE
5
155
100
AcDbEntity
8
0
100
AcDbLine
10
-166.84399999999999
20
186.59700000000001
30
0
11
-203.14400000000003
21
186.59700000000001
31
0
0
ARC
5
156
100
AcDbEntity
8
0
100
AcDbCircle
10
-203.14400000000003
20
185.59700000000004
30
0
40
0.99999999999997868
210
0
220
-0
230
1
100
AcDbArc
50
90
51
180
0
LINE
5
157
100
AcDbEntity
8
0
100
AcDbLine
10
-204.14400000000001
20
185.59700000000004
30
0
11
-204.14400000000001
21
176.59700000000001
31
0
0
LINE
5
158
100
AcDbEntity
8
0
100
AcDbLine
10
-234.74199999999999
20
170.38100000000003
30
0
11
-312.73700000000008
21
170.381
31
0
0
ARC
5
159
100
AcDbEntity
8
0
100
AcDbCircle
10
-312.73700000000008
20
169.38100000000003
30
0
40
0.99999999999997868
210
0
220
-0
230
1
100
AcDbArc
50
90
51
180
0
LINE
5
160
100
AcDbEntity
8
0
100
AcDbLine
10
-313.73700000000002
20
169.38100000000003
30
0
11
-313.73700000000002
21
94.40600000000002
31
0
0
ARC
5
161
100
AcDbEntity
8
0
100
AcDbCircle
10
-312.73700000000008
20
94.40600000000002
30
0
40
0.99999999999997868
210
0
220
0
230
1
100
AcDbArc
50
180
51
270
0
LINE
5
162
100
AcDbEntity
8
0
100
AcDbLine
10
-312.73700000000008
20
93.406000000000034
30
0
11
-214.62200000000001
21
93.40600000000002
31
0
0
ARC
5
163
100
AcDbEntity
8
0
100
AcDbCircle
10
-214.62200000000001
20
92.406000000000006
30
0
40
1.0000000000000142
210
0
220
-0
230
1
100
AcDbArc
50
0
51
90
0
LINE
5
164
100
AcDbEntity
8
0
100
AcDbLine
10
-213.62200000000001
20
92.406000000000006
30
0
11
-213.62200000000001
21
89.575999999999993
31
0
0
ARC
5
165
100
AcDbEntity
8
0
100
AcDbCircle
10
-212.62200000000004
20
89.575999999999993
30
0
40
0.99999999999997868
210
0
220
0
230
1
100
AcDbArc
50
180
51
270
0
LINE
5
166
100
AcDbEntity
8
0
100
AcDbLine
10
-212.62200000000004
20
88.576000000000022
30
0
11
-195.572
21
88.576000000000022
31
0
0
ARC
5
167
100
AcDbEntity
8
0
100
AcDbCircle
10
-195.572
20
87.575999999999993
30
0
40
1.0000000000000142
210
0
220
-0
230
1
100
AcDbArc
50
0
51
90
0
LINE
5
168
100
AcDbEntity
8
0
100
AcDbLine
10
-194.572
20
87.575999999999993
30
0
11
-194.572
21
87.236000000000018
31
0
0
ARC
5
169
100
AcDbEntity
8
0
100
AcDbCircle
10
-193.57200000000003
20
87.236000000000018
30
0
40
0.99999999999997868
210
0
220
0
230
1
100
AcDbArc
50
180
51
270
0
LINE
5
170
100
AcDbEntity
8
0
100
AcDbLine
10
-193.57200000000003
20
86.236000000000033
30
0
11
-176.52199999999999
21
86.236000000000018
31
0
0
ARC
5
171
100
AcDbEntity
8
0
100
AcDbCircle
10
-176.52199999999999
20
87.236000000000018
30
0
40
0.99999999999999645
210
-0
220
0
230
1
100
AcDbArc
50
-90
51
0
0
LINE
5
172
100
AcDbEntity
8
0
100
AcDbLine
10
-175.52199999999999
20
87.236000000000018
30
0
11
-175.52199999999999
21
87.656000000000006
31
0
0
ARC
5
173
100
AcDbEntity
8
0
100
AcDbCircle
10
-174.52200000000002
20
87.656000000000006
30
0
40
0.99999999999999645
210
0
220
-0
230
1
100
AcDbArc
50
90
51
180
0
LINE
5
174
100
AcDbEntity
8
0
100
AcDbLine
10
-174.52200000000002
20
88.656000000000006
30
0
11
-157.47200000000001
21
88.656000000000006
31
0
0
ARC
5
175
100
AcDbEntity
8
0
100
AcDbCircle
10
-157.47200000000001
20
89.656000000000006
30
0
40
0.99999999999999645
210
-0
220
0
230
1
100
AcDbArc
50
-90
51
0
0
LINE
5
176
100
AcDbEntity
8
0
100
AcDbLine
10
-156.47200000000001
20
89.656000000000006
30
0
11
-156.47200000000001
21
89.986000000000018
31
0
0
ARC
5
177
100
AcDbEntity
8
0
100
AcDbCircle
10
-155.47200000000001
20
89.986000000000018
30
0
40
0.99999999999999645
210
0
220
-0
230
1
100
AcDbArc
50
90
51
180
0
LINE
5
178
100
AcDbEntity
8
0
100
AcDbLine
10
-234.74199999999999
20
170.38100000000003
30
0
11
-205.14400000000001
21
170.38100000000003
31
0
0
ARC
5
179
100
AcDbEntity
8
0
100
AcDbCircle
10
-205.14400000000006
20
171.38100000000009
30
0
40
1.0000000000000497
210
-0
220
0
230
1
100
AcDbArc
50
270.00000000000324
51
360
0
LINE
5
180
100
AcDbEntity
8
0
100
AcDbLine
10
-204.14400000000001
20
171.38100000000006
30
0
11
-204.14400000000001
21
176.59700000000001
31
0
0
ENDSEC
0
SECTION
2
OBJECTS
0
DICTIONARY
5
C
100
AcDbDictionary
3
ACAD_GROUP
350
D
3
ACAD_MLINESTYLE
350
17
0
DICTIONARY
5
D
100
AcDbDictionary
0
DICTIONARY
5
1A
330
C
100
AcDbDictionary
0
DICTIONARY
5
17
100
AcDbDictionary
0
ENDSEC
0
EOF
