0
SECTION
2
HEADER
9
$INSUNITS
70
4
9
$ACADVER
1
AC1014
9
$HANDSEED
5
FFFF
0
ENDSEC
0
SECTION
2
TABLES
0
TABLE
2
VPORT
5
8
100
AcDbSymbolTable
0
ENDTAB
0
TABLE
2
LTYPE
5
5
100
AcDbSymbolTable
0
LTYPE
5
14
100
AcDbSymbolTableRecord
100
AcDbLinetypeTableRecord
2
BYBLOCK
70
0
0
LTYPE
5
15
100
AcDbSymbolTableRecord
100
AcDbLinetypeTableRecord
2
BYLAYER
70
0
0
ENDTAB
0
TABLE
2
LAYER
5
2
100
AcDbSymbolTable
70
2
0
LAYER
5
50
100
AcDbSymbolTableRecord
100
AcDbLayerTableRecord
2
0
70
0
6
CONTINUOUS
0
ENDTAB
0
TABLE
2
STYLE
5
3
100
AcDbSymbolTable
70
1
0
STYLE
5
11
100
AcDbSymbolTableRecord
100
AcDbTextStyleTableRecord
2
STANDARD
70
0
0
ENDTAB
0
TABLE
2
VIEW
5
6
100
AcDbSymbolTable
70
0
0
ENDTAB
0
TABLE
2
UCS
5
7
100
AcDbSymbolTable
70
0
0
ENDTAB
0
TABLE
2
APPID
5
9
100
AcDbSymbolTable
70
2
0
APPID
5
12
100
AcDbSymbolTableRecord
100
AcDbRegAppTableRecord
2
ACAD
70
0
0
ENDTAB
0
TABLE
2
DIMSTYLE
5
A
100
AcDbSymbolTable
70
1
0
ENDTAB
0
TABLE
2
BLOCK_RECORD
5
1
100
AcDbSymbolTable
70
1
0
BLOCK_RECORD
5
1F
100
AcDbSymbolTableRecord
100
AcDbBlockTableRecord
2
*MODEL_SPACE
0
BLOCK_RECORD
5
1B
100
AcDbSymbolTableRecord
100
AcDbBlockTableRecord
2
*PAPER_SPACE
0
ENDTAB
0
ENDSEC
0
SECTION
2
BLOCKS
0
BLOCK
5
20
100
AcDbEntity
100
AcDbBlockBegin
2
*MODEL_SPACE
0
ENDBLK
5
21
100
AcDbEntity
100
AcDbBlockEnd
0
BLOCK
5
1C
100
AcDbEntity
100
AcDbBlockBegin
2
*PAPER_SPACE
0
ENDBLK
5
1D
100
AcDbEntity
100
AcDbBlockEnd
0
ENDSEC
0
SECTION
2
ENTITIES
0
LWPOLYLINE
5
100
100
AcDbEntity
8
0
100
AcDbPolyline
90
4
70
1
43
0.0
10
68.408802240533575
20
102.72000000000003
10
68.408802240533575
20
88.719999999999999
10
82.408802240533561
20
88.719999999999999
10
82.408802240533561
20
102.72000000000003
0
LWPOLYLINE
5
101
100
AcDbEntity
8
0
100
AcDbPolyline
90
4
70
1
43
0.0
10
63.358802240533549
20
124.17020000000001
10
49.358802240533564
20
124.17020000000001
10
49.358802240533564
20
110.17019999999999
10
63.358802240533549
20
110.17019999999999
0
LWPOLYLINE
5
102
100
AcDbEntity
8
0
100
AcDbPolyline
90
4
70
1
43
0.0
10
82.408802240533561
20
140.81999999999999
10
68.408802240533575
20
140.81999999999999
10
68.408802240533575
20
126.81999999999999
10
82.408802240533561
20
126.81999999999999
0
LWPOLYLINE
5
103
100
AcDbEntity
8
0
100
AcDbPolyline
90
4
70
1
43
0.0
10
63.358802240533549
20
162.255
10
49.358802240533564
20
162.255
10
49.358802240533564
20
148.25500000000002
10
63.358802240533549
20
148.25500000000002
0
LWPOLYLINE
5
104
100
AcDbEntity
8
0
100
AcDbPolyline
90
4
70
1
43
0.0
10
77.858802240533549
20
169.87
10
91.858802240533521
20
169.87
10
91.858802240533521
20
183.87
10
77.858802240533549
20
183.87
0
LWPOLYLINE
5
105
100
AcDbEntity
8
0
100
AcDbPolyline
90
4
70
1
43
0.0
10
106.50880224053356
20
95.870000000000005
10
120.50880224053356
20
95.870000000000005
10
120.50880224053356
20
109.87000000000002
10
106.50880224053356
20
109.87000000000002
0
LWPOLYLINE
5
106
100
AcDbEntity
8
0
100
AcDbPolyline
90
4
70
1
43
0.0
10
125.55880224053357
20
153.02000000000004
10
139.55880224053357
20
153.02000000000004
10
139.55880224053357
20
167.02000000000001
10
125.55880224053357
20
167.02000000000001
0
LWPOLYLINE
5
107
100
AcDbEntity
8
0
100
AcDbPolyline
90
4
70
1
43
0.0
10
125.55880224053357
20
147.97
10
125.55880224053357
20
133.97000000000003
10
139.55880224053357
20
133.97000000000003
10
139.55880224053357
20
147.97
0
LWPOLYLINE
5
108
100
AcDbEntity
8
0
100
AcDbPolyline
90
4
70
1
43
0.0
10
120.50880224053356
20
114.91999999999999
10
120.50880224053356
20
128.92000000000002
10
106.50880224053356
20
128.92000000000002
10
106.50880224053356
20
114.91999999999999
0
LWPOLYLINE
5
109
100
AcDbEntity
8
0
100
AcDbPolyline
90
4
70
1
43
0.0
10
72.808802240533552
20
169.87
10
72.808802240533552
20
183.87
10
58.808802240533566
20
183.87
10
58.808802240533566
20
169.87
0
LWPOLYLINE
5
110
100
AcDbEntity
8
0
100
AcDbPolyline
90
4
70
1
43
0.0
10
82.408802240533561
20
159.87
10
68.408802240533575
20
159.87
10
68.408802240533575
20
145.87
10
82.408802240533561
20
145.87
0
LWPOLYLINE
5
111
100
AcDbEntity
8
0
100
AcDbPolyline
90
4
70
1
43
0.0
10
49.358802240533564
20
143.20500000000004
10
49.358802240533564
20
129.20500000000001
10
63.358802240533549
20
129.20500000000001
10
63.358802240533549
20
143.20500000000004
0
LWPOLYLINE
5
112
100
AcDbEntity
8
0
100
AcDbPolyline
90
4
70
1
43
0.0
10
82.408802240533561
20
107.80800000000002
10
82.408802240533561
20
121.80800000000002
10
68.408802240533575
20
121.80800000000002
10
68.408802240533575
20
107.80800000000002
0
LWPOLYLINE
5
113
100
AcDbEntity
8
0
100
AcDbPolyline
90
4
70
1
43
0.0
10
30.308802240533552
20
107.48599999999999
10
30.308802240533552
20
93.486000000000018
10
44.308802240533574
20
93.486000000000018
10
44.308802240533574
20
107.48599999999999
0
LWPOLYLINE
5
114
100
AcDbEntity
8
0
100
AcDbPolyline
90
4
70
1
43
0.0
10
87.458802240533544
20
105.105
10
87.458802240533544
20
91.105000000000018
10
101.45880224053354
20
91.105000000000018
10
101.45880224053354
20
105.105
0
LWPOLYLINE
5
115
100
AcDbEntity
8
0
100
AcDbPolyline
90
4
70
1
43
0.0
10
30.308802240533552
20
112.50700000000002
10
44.308802240533574
20
112.50700000000002
10
44.308802240533574
20
126.50700000000001
10
30.308802240533552
20
126.50700000000001
0
LWPOLYLINE
5
116
100
AcDbEntity
8
0
100
AcDbPolyline
90
4
70
1
43
0.0
10
87.458802240533544
20
143.20500000000004
10
87.458802240533544
20
129.20500000000001
10
101.45880224053354
20
129.20500000000001
10
101.45880224053354
20
143.20500000000004
0
LWPOLYLINE
5
117
100
AcDbEntity
8
0
100
AcDbPolyline
90
4
70
1
43
0.0
10
30.308802240533552
20
150.63600000000002
10
44.308802240533574
20
150.63600000000002
10
44.308802240533574
20
164.636
10
30.308802240533552
20
164.636
0
LWPOLYLINE
5
118
100
AcDbEntity
8
0
100
AcDbPolyline
90
4
70
1
43
0.0
10
106.50880224053356
20
153.02000000000004
10
120.50880224053356
20
153.02000000000004
10
120.50880224053356
20
167.02000000000001
10
106.50880224053356
20
167.02000000000001
0
LWPOLYLINE
5
119
100
AcDbEntity
8
0
100
AcDbPolyline
90
4
70
1
43
0.0
10
139.55880224053357
20
95.870000000000005
10
139.55880224053357
20
109.87000000000002
10
125.55880224053357
20
109.87000000000002
10
125.55880224053357
20
95.870000000000005
0
LWPOLYLINE
5
120
100
AcDbEntity
8
0
100
AcDbPolyline
90
4
70
1
43
0.0
10
125.55880224053357
20
128.91999999999999
10
125.55880224053357
20
114.92000000000002
10
139.55880224053357
20
114.92000000000002
10
139.55880224053357
20
128.91999999999999
0
LWPOLYLINE
5
121
100
AcDbEntity
8
0
100
AcDbPolyline
90
4
70
1
43
0.0
10
120.50880224053356
20
147.97
10
106.50880224053356
20
147.97
10
106.50880224053356
20
133.97000000000003
10
120.50880224053356
20
133.97000000000003
0
LWPOLYLINE
5
122
100
AcDbEntity
8
0
100
AcDbPolyline
90
4
70
1
43
0.0
10
53.758802240533541
20
172.25400000000002
10
53.758802240533541
20
186.25399999999999
10
39.758802240533555
20
186.25399999999999
10
39.758802240533555
20
172.25400000000002
0
LWPOLYLINE
5
123
100
AcDbEntity
8
0
100
AcDbPolyline
90
4
70
1
43
0.0
10
87.458802240533544
20
162.255
10
87.458802240533544
20
148.25500000000002
10
101.45880224053354
20
148.25500000000002
10
101.45880224053354
20
162.255
0
LWPOLYLINE
5
124
100
AcDbEntity
8
0
100
AcDbPolyline
90
4
70
1
43
0.0
10
30.308802240533552
20
131.55699999999999
10
44.308802240533574
20
131.55699999999999
10
44.308802240533574
20
145.55699999999999
10
30.308802240533552
20
145.55699999999999
0
LWPOLYLINE
5
125
100
AcDbEntity
8
0
100
AcDbPolyline
90
4
70
1
43
0.0
10
87.458802240533544
20
124.221
10
87.458802240533544
20
110.22100000000002
10
101.45880224053354
20
110.22100000000002
10
101.45880224053354
20
124.221
0
LWPOLYLINE
5
126
100
AcDbEntity
8
0
100
AcDbPolyline
90
4
70
1
43
0.0
10
49.358802240533564
20
105.105
10
49.358802240533564
20
91.105000000000018
10
63.358802240533549
20
91.105000000000018
10
63.358802240533549
20
105.105
0
CIRCLE
5
127
100
AcDbEntity
8
0
100
AcDbCircle
10
46.908802240533554
20
108.48600000000002
30
0
40
1.6500000000000001
210
0
220
-0
230
1
0
CIRCLE
5
128
100
AcDbEntity
8
0
100
AcDbCircle
10
33.442802240533553
20
171.89099999999999
30
0
40
1.6500000000000001
210
0
220
-0
230
1
0
CIRCLE
5
129
100
AcDbEntity
8
0
100
AcDbCircle
10
123.04280224053355
20
131.42099999999999
30
0
40
1.6500000000000001
210
0
220
-0
230
1
0
LWPOLYLINE
5
130
100
AcDbEntity
8
0
100
AcDbPolyline
90
20
70
1
43
0.0
10
6.2907800552796189
20
168.46813592877751
10
6.8104549270231729
20
168.16856489010291
10
6.4047930262772113
20
167.46526756111552
10
17.387415418233694
20
161.12463580753743
10
17.793077318979691
20
161.82793313652482
10
18.31275219072328
20
161.52836209785022
10
19.794965048139836
20
164.09731022792181
10
20.437643648493058
20
163.72599221067188
10
22.010305032024426
20
166.44913656934091
10
21.367626431671134
20
166.82045458659076
10
31.717950184839658
20
184.74777158248187
10
32.36062878519288
20
184.376453565232
10
33.933290168724248
20
187.099597923901
10
33.290611568370956
20
187.47091594115093
10
34.772824425787547
20
190.03986407122252
10
34.253149554043922
20
190.33943510989707
10
34.658811454789991
20
191.04273243888451
10
23.676189062833473
20
197.38336419246252
10
23.270527162087475
20
196.68006686347519
10
22.750852290343886
20
196.97963790214973
0
ARC
5
131
100
AcDbEntity
8
0
100
AcDbCircle
10
142.23880224053352
20
94.40600000000002
30
0
40
1.0000000000000142
210
-0
220
0
230
1
100
AcDbArc
50
-90
51
0
0
LINE
5
132
100
AcDbEntity
8
0
100
AcDbLine
10
143.23880224053354
20
94.40600000000002
30
0
11
143.23880224053354
21
169.38100000000003
31
0
0
ARC
5
133
100
AcDbEntity
8
0
100
AcDbCircle
10
142.23880224053352
20
169.38100000000003
30
0
40
1.0000000000000142
210
0
220
-0
230
1
100
AcDbArc
50
0
51
90
0
LINE
5
134
100
AcDbEntity
8
0
100
AcDbLine
10
142.23880224053352
20
170.381
30
0
11
125.23880224053354
21
170.381
31
0
0
LINE
5
135
100
AcDbEntity
8
0
100
AcDbLine
10
94.640802240533546
20
176.59700000000001
30
0
11
94.640802240533588
21
185.59700000000004
31
0
0
ARC
5
136
100
AcDbEntity
8
0
100
AcDbCircle
10
93.64080224053356
20
185.59700000000004
30
0
40
1.0000000000000142
210
0
220
-0
230
1
100
AcDbArc
50
0
51
90
0
LINE
5
137
100
AcDbEntity
8
0
100
AcDbLine
10
93.64080224053356
20
186.59700000000001
30
0
11
57.340802240533542
21
186.59700000000001
31
0
0
ARC
5
138
100
AcDbEntity
8
0
100
AcDbCircle
10
57.340802240533542
20
187.59700000000004
30
0
40
0.99999999999997868
210
0
220
0
230
1
100
AcDbArc
50
180
51
270
0
LINE
5
139
100
AcDbEntity
8
0
100
AcDbLine
10
56.340802240533563
20
187.59700000000004
30
0
11
56.340802240533563
21
187.97700000000003
31
0
0
ARC
5
140
100
AcDbEntity
8
0
100
AcDbCircle
10
55.340802240533549
20
187.97700000000003
30
0
40
1.0000000000000142
210
0
220
-0
230
1
100
AcDbArc
50
0
51
90
0
LINE
5
141
100
AcDbEntity
8
0
100
AcDbLine
10
55.340802240533549
20
188.977
30
0
11
42.242802240533557
21
188.97700000000009
31
0
0
ARC
5
142
100
AcDbEntity
8
0
100
AcDbCircle
10
42.23280224053353
20
189.97699999999992
30
0
40
1.0000499987498854
210
0
220
0
230
1
100
AcDbArc
50
240.00000844661662
51
270.57293869768506
0
LINE
5
143
100
AcDbEntity
8
0
100
AcDbLine
10
41.732777368835542
20
189.11093122231361
30
0
11
21.230802240533571
21
200.95400000000006
31
0
0
ARC
5
144
100
AcDbEntity
8
0
100
AcDbCircle
10
20.730802240533563
20
200.08800000000002
30
0
40
0.99997799975803492
210
0
220
-0
230
1
100
AcDbArc
50
59.999272219173491
51
149.99927221917375
0
LINE
5
145
100
AcDbEntity
8
0
100
AcDbLine
10
19.864802240533525
20
200.58800000000002
30
0
11
1.7237236898629327
21
169.16667699784034
31
0
0
ARC
5
146
100
AcDbEntity
8
0
100
AcDbCircle
10
2.589749460550852
20
168.66667763333638
30
0
40
0.99999999999999312
210
0
220
0
230
1
100
AcDbArc
50
150.00004204406997
51
240.00004204406861
0
LINE
5
147
100
AcDbEntity
8
0
100
AcDbLine
10
2.0897500960468642
20
167.80065186264846
30
0
11
27.447510135460007
21
153.16036708812015
31
0
0
LINE
5
148
100
AcDbEntity
8
0
100
AcDbLine
10
27.447510135460007
20
153.16036708812015
30
0
11
27.447510135460078
21
91.986000000000004
31
0
0
ARC
5
149
100
AcDbEntity
8
0
100
AcDbCircle
10
28.447510135460075
20
91.986000000000004
30
0
40
0.99999999999999645
210
0
220
0
230
1
100
AcDbArc
50
180
51
270
0
LINE
5
150
100
AcDbEntity
8
0
100
AcDbLine
10
28.447510135460075
20
90.986000000000018
30
0
11
45.968802240533563
21
90.986000000000018
31
0
0
ARC
5
151
100
AcDbEntity
8
0
100
AcDbCircle
10
45.968802240533563
20
89.986000000000018
30
0
40
0.99999999999999645
210
0
220
-0
230
1
100
AcDbArc
50
0
51
90
0
LINE
5
152
100
AcDbEntity
8
0
100
AcDbLine
10
46.968802240533556
20
89.986000000000018
30
0
11
46.968802240533556
21
89.656000000000006
31
0
0
ARC
5
153
100
AcDbEntity
8
0
100
AcDbCircle
10
47.968802240533549
20
89.656000000000006
30
0
40
0.99999999999999645
210
0
220
0
230
1
100
AcDbArc
50
180
51
270
0
LINE
5
154
100
AcDbEntity
8
0
100
AcDbLine
10
47.968802240533549
20
88.656000000000006
30
0
11
65.018802240533546
21
88.655999999999992
31
0
0
ARC
5
155
100
AcDbEntity
8
0
100
AcDbCircle
10
65.018802240533546
20
87.656000000000006
30
0
40
0.99999999999997868
210
0
220
-0
230
1
100
AcDbArc
50
0
51
90
0
LINE
5
156
100
AcDbEntity
8
0
100
AcDbLine
10
66.018802240533532
20
87.656000000000006
30
0
11
66.018802240533532
21
87.236000000000018
31
0
0
ARC
5
157
100
AcDbEntity
8
0
100
AcDbCircle
10
67.018802240533546
20
87.236000000000018
30
0
40
1.0000000000000142
210
0
220
0
230
1
100
AcDbArc
50
180
51
270
0
LINE
5
158
100
AcDbEntity
8
0
100
AcDbLine
10
67.018802240533546
20
86.23599999999999
30
0
11
84.068802240533557
21
86.236000000000033
31
0
0
ARC
5
159
100
AcDbEntity
8
0
100
AcDbCircle
10
84.068802240533557
20
87.236000000000018
30
0
40
0.99999999999997868
210
-0
220
0
230
1
100
AcDbArc
50
-90
51
0
0
LINE
5
160
100
AcDbEntity
8
0
100
AcDbLine
10
85.068802240533543
20
87.236000000000018
30
0
11
85.068802240533557
21
87.575999999999993
31
0
0
ARC
5
161
100
AcDbEntity
8
0
100
AcDbCircle
10
86.068802240533557
20
87.575999999999993
30
0
40
0.99999999999999645
210
0
220
-0
230
1
100
AcDbArc
50
90
51
180
0
LINE
5
162
100
AcDbEntity
8
0
100
AcDbLine
10
86.068802240533557
20
88.575999999999993
30
0
11
103.11880224053357
21
88.575999999999993
31
0
0
ARC
5
163
100
AcDbEntity
8
0
100
AcDbCircle
10
103.11880224053357
20
89.575999999999993
30
0
40
0.99999999999999645
210
-0
220
0
230
1
100
AcDbArc
50
-90
51
0
0
LINE
5
164
100
AcDbEntity
8
0
100
AcDbLine
10
104.11880224053355
20
89.575999999999993
30
0
11
104.11880224053357
21
92.406000000000006
31
0
0
ARC
5
165
100
AcDbEntity
8
0
100
AcDbCircle
10
105.11880224053357
20
92.406000000000006
30
0
40
0.99999999999999645
210
0
220
-0
230
1
100
AcDbArc
50
90
51
180
0
LINE
5
166
100
AcDbEntity
8
0
100
AcDbLine
10
105.11880224053357
20
93.406000000000006
30
0
11
142.23880224053352
21
93.406000000000006
31
0
0
LINE
5
167
100
AcDbEntity
8
0
100
AcDbLine
10
94.640802240533546
20
171.38100000000009
30
0
11
94.640802240533546
21
176.59700000000001
31
0
0
ARC
5
168
100
AcDbEntity
8
0
100
AcDbCircle
10
95.640802240533588
20
171.38100000000014
30
0
40
1.0000000000000497
210
0
220
0
230
1
100
AcDbArc
50
180
51
269.99999999999756
0
LINE
5
169
100
AcDbEntity
8
0
100
AcDbLine
10
125.23880224053354
20
170.381
30
0
11
95.640802240533546
21
170.38100000000011
31
0
0
ENDSEC
0
SECTION
2
OBJECTS
0
DICTIONARY
5
C
100
AcDbDictionary
3
ACAD_GROUP
350
D
3
ACAD_MLINESTYLE
350
17
0
DICTIONARY
5
D
100
AcDbDictionary
0
DICTIONARY
5
1A
330
C
100
AcDbDictionary
0
DICTIONARY
5
17
100
AcDbDictionary
0
ENDSEC
0
EOF
